<?xml version="1.0" encoding="utf-8"?>
<!-- Generator: Adobe Illustrator 24.2.1, SVG Export Plug-In . SVG Version: 6.00 Build 0)  -->
<svg version="1.1" xmlns="http://www.w3.org/2000/svg" xmlns:xlink="http://www.w3.org/1999/xlink" x="0px" y="0px"
	 viewBox="0 0 516.1 716.1" style="enable-background:new 0 0 516.1 716.1;" xml:space="preserve">
<style type="text/css">
	.st0{display:none;}
	.st1{fill:#E6CB39;}
	.st2{display:none;opacity:0.85;}
	.st3{fill:#DCBF26;}
	.st4{fill:#FEFEFB;}
	.st5{fill:#545151;}
	.st6{fill:#010101;}
	.st7{fill:#010201;}
	.st8{fill:#DCBF27;}
	.st9{fill:#2F2D26;}
	.st10{fill:#EC2828;}
	.st11{fill:#DCBF28;}
	.st12{fill:#DDC02B;}
	.st13{fill:#DCBF29;}
	.st14{fill:#2E2D2D;}
	.st15{fill:#38333D;}
	.st16{fill:#373535;}
	.st17{fill:#272525;}
	.st18{fill:#242222;}
	.st19{fill:#353535;}
	.st20{fill:#3D3C3C;}
	.st21{fill:#393939;}
	.st22{fill:#383636;}
	.st23{fill:#3D3B3B;}
	.st24{fill:#2E2826;}
	.st25{fill:#F1E5B7;}
	.st26{fill:#454241;}
	.st27{fill:#211F1F;}
	.st28{fill:#E1C646;}
	.st29{fill:#050505;}
	.st30{fill:#EFE0A6;}
	.st31{fill:#F1E4B5;}
	.st32{fill:#E9D583;}
	.st33{fill:#F6D7B8;}
	.st34{fill:#EDDC9B;}
	.st35{fill:#252323;}
	.st36{fill:#EBD88D;}
	.st37{fill:#E1C64A;}
	.st38{fill:#FAF6F5;}
	.st39{fill:#E3CA59;}
	.st40{fill:#EAD687;}
	.st41{fill:#FFFFFF;}
	.st42{fill:#4B4A4B;}
	.st43{fill:#F05941;}
	.st44{fill:#EC2227;}
	.st45{fill:#FFFDFC;}
	.st46{fill:#FFFAF8;}
	.st47{fill:#FFFBFA;}
	.st48{fill:#FEFDF9;}
	.st49{fill:#FDFCF6;}
	.st50{fill:#FDFAF3;}
	.st51{fill:#FEFBF6;}
	.st52{fill:#FCF9F0;}
	.st53{fill:#FCF8EE;}
	.st54{fill:#FBF8EE;}
	.st55{fill:#F8F1DC;}
	.st56{fill:#FAF6E9;}
	.st57{fill:#F9F3E1;}
	.st58{fill:#F8EEDB;}
	.st59{fill:#F9F5E5;}
	.st60{fill:#F6EFD5;}
	.st61{fill:#F7F0D9;}
	.st62{fill:#F9D7C2;}
	.st63{fill:#F6EED2;}
	.st64{fill:#F6EDD0;}
	.st65{fill:#F9F5E6;}
	.st66{fill:#343131;}
	.st67{fill:#F0E3B0;}
	.st68{fill:#EEDFA2;}
	.st69{fill:#F9F3E0;}
	.st70{fill:#E9D687;}
	.st71{fill:#FBF8ED;}
	.st72{fill:#F2E6B9;}
	.st73{fill:#F7C7A5;}
	.st74{fill:#F3D7AD;}
	.st75{fill:#ECDA93;}
	.st76{fill:#F8F2DF;}
	.st77{fill:#FEFEFE;}
	.st78{fill:#FEFDFD;}
	.st79{fill:#FDFDFD;}
	.st80{fill:#DBBE27;}
	.st81{fill:#DABE27;}
	.st82{fill:#F3F2F2;}
	.st83{fill:#646566;}
	.st84{fill:#7E66AA;}
	.st85{fill:#8E7DB1;}
	.st86{fill:#060606;}
	.st87{fill:#8E7FAE;}
	.st88{fill:#8E85A4;}
	.st89{fill:#886C62;}
	.st90{fill:#A87766;}
	.st91{fill:#EC2428;}
	.st92{fill:#C87B63;}
	.st93{fill:#AF7C6A;}
	.st94{fill:#CC755C;}
	.st95{fill:#7F6C65;}
	.st96{fill:#75645D;}
	.st97{fill:#DDC12F;}
	.st98{fill:#262424;}
	.st99{fill:#302D11;}
	.st100{fill:#332C29;}
	.st101{fill:#363535;}
	.st102{fill:#363536;}
	.st103{fill:#363433;}
	.st104{fill:#333035;}
	.st105{fill:#2E2C2B;}
	.st106{fill:#424141;}
	.st107{fill:#3E3B2D;}
	.st108{fill:#333130;}
	.st109{fill:#2C2624;}
	.st110{fill:#ED382E;}
	.st111{fill:#020202;}
	.st112{fill:#030303;}
	.st113{fill:#040403;}
	.st114{fill:#FCF4F0;}
	.st115{fill:#FBFBFD;}
	.st116{fill:#FCFBFD;}
	.st117{fill:#FBFAFD;}
	.st118{fill:#FCFCFD;}
	.st119{fill:#8F7FB1;}
	.st120{fill:#8D85A3;}
	.st121{fill:#413D1B;}
	.st122{fill:#0D0D05;}
	.st123{fill:#BC7D68;}
	.st124{fill:#D66F56;}
	.st125{fill:#C37761;}
	.st126{fill:#615D5C;}
	.st127{fill:#53504F;}
	.st128{display:inline;fill:#DAB12E;}
	.st129{fill:#303130;}
	.st130{fill:#2F2F2E;}
	.st131{fill:#212322;}
	.st132{fill:#F1D44A;}
	.st133{fill:#F4F6FB;}
	.st134{fill:#C01F41;}
	.st135{fill:#F4DD7E;}
	
		.st136{fill-rule:evenodd;clip-rule:evenodd;fill:#010101;stroke:#C01F41;stroke-width:8;stroke-linecap:square;stroke-miterlimit:4.598;}
	.st137{fill-rule:evenodd;clip-rule:evenodd;fill:#C01F41;}
	.st138{fill:#1D2858;}
	.st139{fill:none;stroke:#F1D44A;stroke-miterlimit:10;}
	.st140{fill-rule:evenodd;clip-rule:evenodd;fill:#F4F6FB;}
	.st141{fill-rule:evenodd;clip-rule:evenodd;fill:#F1D44A;}
	.st142{display:inline;}
	.st143{display:inline;fill:#FFFFFF;}
</style>
<g id="Layer_2" class="st0">
</g>
<g id="Assets">
</g>
<g id="Crest">
</g>
<g id="Layer_9">
	<path class="st129" d="M222.1,639.8c0.1-0.1,0.2-0.3,0.4-0.4c0.5,0.6,0.1,1-0.3,1.4C222.2,640.5,222.2,640.2,222.1,639.8z"/>
	<g>
		<g>
			<path class="st130" d="M45.7,582c0.2,0,0.4,0,0.6-0.1c0.8,1.1,0.9,2.1,0,3.1c-0.2,0-0.4,0-0.6-0.1
				C45.7,583.9,45.7,582.9,45.7,582z"/>
			<path class="st131" d="M46.3,585c0-1,0-2.1,0-3.1c1.9-3,5.1-4.1,7.9-5.6c12.4-6.4,25.8-8.7,39.3-9.8c5.6-0.5,11.2-0.2,16.8,0.8
				c1.7,0.3,2-0.7,2.4-2c4.7-14,2.3-27-4.5-39.4c-4.3-8-11.4-10.7-19.7-8c-1.8,0.6-2.4,1.2-2.1,3.5c0.8,5.4,1.1,10.8,1.8,16.2
				c0.2,1.5,0.1,2.4-1.5,2.2c-3.6-0.4-7.2-0.8-10.5-2.8c-4.9-3-6.9-7.8-5.9-14.8c1.8-12.9,3.8-25.7,5.6-38.5
				c1.7-12.2,2.4-24.4-2.2-36.3c-1-2.6-0.5-4.8,1.8-6.2c5.6-3.5,11.6-4.4,17.8-2.7c2.8,0.7,4.1,2.6,3.9,6.1
				c-0.7,11.9-0.6,23.9,1.1,35.7c1.8,12.1,7.4,22.1,14.3,31.3c9.1,12.1,19.2,23.3,27.7,36c5.7,8.5,11,17.2,12.3,28
				c0.5,3.7,0.8,7.4,0.9,11.2c0.1,1.6,0.5,2.5,1.8,3.4c23.8,16.9,49.4,29.1,77.6,33.9c37.8,6.4,73.7,0.1,107.6-19.3
				c7.8-4.5,15.4-9.4,22.8-14.5c1-0.7,1.9-1.2,2-2.9c0.7-22.3,9.9-40.6,22.6-57.2c5-6.6,10.6-12.6,15.1-19.7
				c8-12.5,12-26.6,13.9-41.6c1.2-9.1,2-18.2,2-27.4c0-2.3,1.3-3.5,2.8-4.5c5.4-3.7,15.4-2.6,20.2,2c2.6,2.6,3.1,5.5,2,9.2
				c-3,10.1-5.4,20.5-4.4,31.2c1.1,13.2,3.1,26.3,6.1,39.1c0.3,1.3,0.7,2.5,1,3.8c2,10.4-7.5,19.7-16.9,16.7
				c-1.6-0.5-1.7-1.3-1.1-2.8c2.4-6.5,3.6-13.3,4.5-20.3c0.4-3-0.9-3.9-2.9-4.1c-9-0.8-16.7,0.3-21,10.7
				c-5.6,13.5-5.9,26.9-0.2,40.4c0.7,1.7,1.4,2.3,3.4,1.9c17.5-3.5,34.1-0.2,50.3,7.2c0.8,0.4,1.6,0.8,2.4,1.3
				c6.5,3.8,6.6,5.2,2,11.5c-7.2,10-11,21.5-12.5,34.1c-1,8-0.5,16.1-1.6,24.2c-1.1,7.8-5.6,12-11.9,14.5c-11.5,4.7-22.7,3-33.9-1.3
				c-4.6-1.8-9-3.9-13.1-6.7c-1.5-1-2.7-0.9-4.2,0c-16.9,9.6-33.3,20.2-50.7,28.6c-20.9,10.1-42.8,15.1-65.5,17.1
				c-46.6,4.3-89.3-9.5-130.1-32.8c-4.4-2.5-8.8-5-13.1-7.7c-1.6-1-2.6-0.7-4.1,0.4c-14.1,10.1-29.3,14-45.9,8.8
				c-3.8-1.2-7.3-3.3-10.2-6.4c-3.5-3.7-4.6-8.3-4.8-13.4c-0.9-18.1-7-34.4-14.3-50.3C50,590.6,47.4,588.3,46.3,585z"/>
			<path class="st132" d="M406.6,519.1c-6.5,15.4-5.3,30-0.7,44.5c0.8,2.5,0.5,3.1-1.7,3.9c-11.6,3.9-22,10.4-32.2,17.2
				c-3,2-3.3,1.9-3.5-2c-0.3-5.4,0.6-10.6,2.1-15.6c5.8-18.7,14.8-34.6,30.8-45C402.8,521.2,404.4,520.4,406.6,519.1z"/>
			<path class="st133" d="M104.8,574.3c3,0.3,6.8,0.3,10.4,1.4c0.8,0.2,2.1,0.2,2,1.8c-0.1,1.6-1.2,1-1.9,1.1
				c-1.6,0.3-3,0.9-3.6,2.8c-0.8,2.5-1.2,4.4,2.2,5.2c5,1.2,9.5,3.8,13.2,7.9c6,6.8,5.3,15.3-1.6,20.9c-4.4,3.5-9.5,4.9-14.8,5.6
				c-1.3,0.2-3.3-0.9-3.8,1c-0.5,2.3-0.4,4.7,0.9,7c0.8,1.5,4.3,1.7,2.3,4.5c-1.4,2-3.3-0.3-5-0.6c-3.2-0.5-6.3-1.3-9.4-2
				c-0.8-0.2-1.6-0.1-1.5-1.4c0.1-1,0.7-1.1,1.4-1.2c2.2-0.3,3.2-1.8,3.7-4c0.6-2.5,0.6-4.1-2.5-4.8c-5-1.1-9.6-3.7-13.3-7.7
				c-6.2-6.8-5.7-15.4,1.4-21.1c4.5-3.6,9.7-5,15.1-5.6c1.2-0.1,3.1,1.2,3.5-1.2c0.4-2.4-0.1-4.5-2-6c-1-0.8-3.4,0-2.9-2
				c0.4-2,2.7-0.7,4-1.3C102.9,574.1,103.6,574.3,104.8,574.3z"/>
			<path class="st133" d="M213.4,639.8c-5.9,4.9-11.7,9.8-17.6,14.7c-0.8,0.6-1.4,1.6-2.7,1.7c-1.9-7.6-3.9-15.3-5.8-23
				c-1.2,0.3-1.3,1.5-1.6,2.3c-2.8,7.3-5.5,14.7-8.2,22.1c-1,2.7-1.3,5.5,1.3,7.4c1,0.8,0.7,1.5,0.3,2.5c-0.6,1.3-1.3,0.4-1.9,0.2
				c-4-1.7-8-3.5-11.9-5.3c-0.6-0.3-1.7-0.4-1.4-1.6c0.2-1,1-1.2,1.8-1.1c5.2,0.8,7.5-2.6,9.1-7.4c3-9,6.2-18,9.4-27
				c1.2-3.4,1.1-6.3-1.6-8.8c-0.7-0.7-1.4-1.4-0.8-2.4c0.7-1.1,1.6,0,2.4,0.1c0.1,0,0.2,0.1,0.3,0.1c7.6,1.3,11.4,6,12,14.6
				c0.4,5.2,2.1,10.3,3.2,15.5c1.3,0.2,1.9-1,2.8-1.7c4.4-3.6,9.1-7,13-11.2c3.8-4.1,7.5-3.5,11.7-1.9c0.5,0.2,1.5,0.1,1.3,1.1
				c-0.2,0.8-0.1,1.9-1.5,1.8c-2.6-0.2-3.6,1.7-4.2,4.1c-2.9,11.1-5.8,22.2-8.8,33.3c-0.9,3.3-0.2,5.6,2.4,7.4c1,0.7,2.4,1.2,1.6,3
				c-0.8,1.8-2,0.3-2.8,0c-4.7-1.6-9.4-3.3-14.1-5.1c-0.7-0.3-2-0.1-1.8-1.5c0.1-1.2,1-1.4,2-1.3c3.2,0.2,4.7-1.6,5.5-4.9
				c2.2-8.9,4.7-17.8,7-26.7C213.6,640.5,213.9,640.1,213.4,639.8z"/>
			<path class="st132" d="M110.7,523.3c18.4,3.6,43.2,43.2,39.5,63.4c-3.5-2.3-7-4.6-10.5-6.9c-7.1-4.7-14.5-8.7-22.6-10.8
				c-1.6-0.4-1.9-1-1.5-2.7c3.4-14.6,2.1-28.7-4.7-42C110.8,524.1,110.8,523.7,110.7,523.3z"/>
			<path class="st133" d="M437.9,579.6c1-1.6,2.1-3,3.6-3.8c1-0.6,2.1-1.5,3.4-0.5c1.2,0.9,1.4,2.2,1.2,3.5
				c-0.7,4.8-1.4,9.5-2.3,14.2c-1.2,6.6-2.6,13.2-3.3,19.9c-0.1,0.7-0.2,1.4-0.2,2.2c-0.5,7,1,9.2,7.3,10.1
				c-1.1,3.2-3.3,4.8-6.2,5.1c-3,0.2-5.4-1.1-6.8-4.1c-2.7-5.6-2.5-11.7-2.1-17.7c0.4-6.5,1.6-12.9,3.2-19.2
				c0.4-1.5,0.6-3.1,0.6-4.6c0-3.5-1.6-5.5-4.8-5.6c-5.1-0.2-8.9,2.6-11.3,7.3c-3.3,6.4-4.9,13.5-5,20.7c0,6.2,2.9,12.6,11.4,11.2
				c1.5-0.3,3.6-1.2,4.4,1c0.8,2.4-0.8,4.1-2.5,5.4c-5.6,4.4-14.2,2.3-18.2-4.6c-4-6.9-3.9-14.4-2.2-22c1.9-7.9,5.6-14.6,11-20.2
				C425.7,571.2,432,571.6,437.9,579.6z"/>
			<path class="st132" d="M125.9,651.4c-7.4,5.8-15.1,9.5-23.8,11c-6.9,1.1-13.6,0.6-20.2-2.1c-1.4-0.6-2.9-1.3-4.1-2.3
				c-6.4-4.6-6.3-13,0.1-17.6c4.8-3.4,10.1-3.8,15.6-3.1C105.3,638.9,115.4,645,125.9,651.4z"/>
			<path class="st133" d="M319.9,673.7c0,1.6-1,1.9-2.2,2.2c-10.3,2.4-20.6,4.8-30.9,7.3c-1.6,0.4-2.4-0.9-3.5-1.5
				c-5.9-3.2-7-7.7-5.2-14.8c3-11.7,4.8-23.7,7-35.6c0.4-2.2,0.8-2.9,3.1-2.2c4,1.3,6.8,3.6,9.1,7.5c6.8,11.5,14.1,22.7,21.2,34
				C319,671.5,319.9,672.4,319.9,673.7z"/>
			<path class="st132" d="M395,646.3c10.7-5.6,20.5-11.6,31.9-12.4c5.6-0.4,11,0.3,15.9,3.6c5.7,3.8,5.9,10.3,0.5,14.7
				c-3.1,2.5-6.7,3.7-10.4,4.2C419.3,658.4,407.5,652.4,395,646.3z"/>
			<path class="st133" d="M353.5,658.5c5.4-7.7,6.4-16.4,6.7-25.3c0.3-9.3-4-15.1-12.4-16.5c-1.5-0.3-3.1-0.5-4.6-0.7
				c-2.3-0.4-2.5-1.6-1.1-3.4c1.2-1.5,2.8-2.5,4.5-2.7c6.1-1,12-0.6,16.7,4.5c4.2,4.5,8.2,9.1,12.3,13.6c4.3,4.7,9.3,8,15.2,9.8
				c1.2,0.4,2.9,0.6,2.9,2.4c0,2-1.7,2.8-3.2,3.2c-3.9,0.9-7.4-0.4-10.8-2.3c-5-2.8-9.5-6.5-14.4-10.4c0.5,5.8,0.8,11.1-0.2,16.3
				c-0.6,3.1-1.5,6.1-3.4,8.5C359.8,658.1,357.3,659.5,353.5,658.5z"/>
			<path class="st133" d="M318.4,646.2c-6.9-2.8-9.1-5.7-8.8-11.6c0.4-7.2,9.9-13.5,15.9-10.5c1.7,0.8,2.6,2.2,2.3,4.3
				c-0.3,2.2-1.7,2.4-3.5,2.2c-2.4-0.3-4.9-0.2-7,1.4c-1.4,1-2.3,2.4-2.1,4.2c0.1,1.8,1.2,3,2.7,3.8c3.4,1.6,6.8,0.8,10.1,0
				c1.8-0.5,3.3-0.8,4.1,1.5c0.7,2.4-0.2,3.6-2.3,4.5c-5,2.2-6.5,5.5-5.2,10.4c1.7,6.9,6.4,8.8,11.8,5c2.5-1.8,4.6-4.1,6.3-6.8
				c0.8-1.2,1.6-2.6,3.2-1.9c1.3,0.7,2.2,2,2.2,3.7c0,2.7-1,5.1-2.8,6.7c-5.5,5-11.9,7.5-19,5.8c-8.4-2-12.2-10-9.2-18.9
				C317.4,648.6,317.9,647.4,318.4,646.2z"/>
			<path class="st133" d="M227.5,643.1c6.1,1.5,8.9,5.6,8.6,12.3c-0.2,4.1-1.4,8-2,12.1c-1,6.7,2,10.6,7,9.5
				c3.2-0.7,4.7-3.5,5.5-6.6c1.6-5.9,1.1-11.9,0.3-17.9c-0.2-1.6-2-4.2,0.6-5c2.3-0.7,3.4,1.9,3.8,4.1c1.9,10.4,0.5,20.2-5.7,28.7
				c-2.9,4-7.2,5.9-11.9,4.1c-5.2-2-6.2-7.4-6.9-12.6c-0.7-5.1,0.7-10.1,1.4-15.1C228.8,652.2,229.3,647.7,227.5,643.1z"/>
			<path class="st133" d="M406.6,575.4c-0.5,7.8-3.6,12.4-10.2,14.1c-8.3,2.2-16.7,4.4-23.9,10c-1,0.8-1.9,1.6-3,2.3
				c-0.8,0.5-1.1,2.2-2.4,1.3c-0.9-0.6-0.5-1.7-0.6-2.7c-0.2-3.7,1.6-6.4,4-8.7c3.3-3.1,7.2-5.1,11.2-6.7
				C390,581.9,398.4,579.3,406.6,575.4z"/>
			<path class="st133" d="M388.4,595.6c3.1,0,5.5,1.2,7.2,3.9c2.4,3.8,4.2,8,4.7,12.6c0.8,6.7,2,13.3,4.9,19.4
				c1.1,2.4,0.1,3.4-2,3.5c-4.5,0.3-7.9-2.7-8.7-8.5c-1-6.8-2.6-13.4-4.8-19.9c-0.9-2.6-1.8-5.2-3.3-7.5c-0.5-0.8-1.5-1.7-0.8-2.8
				C386.4,595.3,387.6,595.9,388.4,595.6z"/>
			<path class="st133" d="M139.1,646.7c-7.6-0.3-11.4-7.1-8.9-16c2.4-8.3,7.5-14.7,13.3-20.3c1.8-1.8,4.1-1.3,5.7,0.4
				c1.6,1.7-0.1,3.1-0.9,4.4c-3,4.6-6.2,9.1-9.2,13.7c-2,3-4,6.1-4,10.1c0,3,1.2,4.7,4.1,5c1,0.1,2.8-0.9,2.7,1.3
				C141.8,647.5,139.9,646.2,139.1,646.7z"/>
			<path class="st132" d="M85.9,533c0.3,1.7-0.1,2.5-1.4,2.3c-2.6-0.4-5.2-0.4-7.7-1.8c-4.7-2.5-5.3-7.7-1.4-11.3
				c0.6-0.5,1.2-1,1.9-1.4c5.7-3.5,6.9-2.9,7.7,3.9C85.3,527.6,85.6,530.5,85.9,533z"/>
			<path class="st131" d="M444,524.5c0,5.6-2.6,9.4-6.8,10c-3,0.4-4-0.5-3.6-3.8c0.6-5,1.3-10,1.9-15c0.2-2,0.8-2.1,2.3-1.4
				C441.5,516,444,520.1,444,524.5z"/>
			<path class="st131" d="M102.8,592.2c-0.7,7-1.5,13.9-2.2,20.8c-0.2,1.7-0.5,2.5-2.4,1.7c-6-2.4-10.2-8.1-9.7-13.4
				c0.6-6,7.5-12.1,13.3-11.7C103.9,589.8,102.4,591.4,102.8,592.2z"/>
			<path class="st131" d="M121.9,603.6c-0.1,6.1-7.8,13.1-13.5,12.5c-1.3-0.1-1.1-0.8-1-1.7c0.9-7.4,1.7-14.8,2.6-22.3
				c0.1-0.9,0.2-1.6,1.3-1.5C115.9,591,122,598.5,121.9,603.6z"/>
		</g>
		<path class="st131" d="M283.2,674.8c2.6-12,5.3-24,7.9-36c1.2,0.1,1.4,1.3,1.8,2c5,8.7,9.9,17.6,15.1,26.3
			c1.4,2.3,0.8,2.9-1.3,3.3c-7.7,1.6-15.3,3.2-23,4.9C283.5,675.2,283.3,675,283.2,674.8z"/>
	</g>
	<path class="st131" d="M291.9,674.8c0.2,0.2,0.3,0.3,0.5,0.5C291.9,675.5,291.8,675.3,291.9,674.8z"/>
	<g>
		<path class="st131" d="M257.9,296c46,0,91.9,0,137.9-0.1c2.6,0,3.3,0.8,3.3,3.5c8,118.2-25.9,267.5-141.4,320.7
			c-103.2-53.1-145.5-177.7-141.6-288.7c0-11.3,0.6-22.5,0.9-33.8c0-1.4,0.4-1.9,1.6-1.7c0.7,0.1,1.3,0,2,0
			C166.4,296,212.2,296,257.9,296z"/>
	</g>
	<g>
		<path class="st132" d="M249.8,401.6c-5.9-16.9-11.8-33.8-17.8-50.7c-0.6-1.7-1-2.9,0.8-4.2c2.1-1.5,3.2-4.1,3.7-6.8
			c0.2-0.8,1.1-2.2-0.1-2.7c-1-0.4-2.3-0.3-3.3,0c-1,0.3-0.8,1.7-1.2,2.6c-0.8,1.8-1.7,3.5-3.7,3.5c-1.8,0-3.1-1.5-3.5-3.3
			c-0.6-2.8-2.2-3.1-4.5-3.1c-7.9,0.1-15.7,0-23.6,0.1c-2.7,0-3.6-1.9-4.2-3.9c-0.7-2.7,1.7-2.2,3-2.6c2.7-0.9,5.3-2,7.4-4
			c4.5-4.1,4.5-10,0-14.2c-6.9-6.5-20.9-6.5-27.7,0.1c-4.3,4.1-4.2,9.9,0,14c2.6,2.4,5.6,3.8,8.9,4.3c1.8,0.3,2.2,1.6,1.6,2.8
			c-0.9,1.7-1.7,3.6-4.3,3.5c-7.2-0.2-14.5,0-21.7-0.1c-1.8,0-3.1,0.1-3.6,2.5c-0.4,2-1.6,3.8-3.8,3.9c-2.2,0-3.1-1.9-3.8-3.8
			c-0.2-0.5-0.3-1.1-0.5-1.6c-0.9-1.7-2.4-1-3.6-0.8c-1.5,0.2-0.6,1.6-0.4,2.4c0.4,2.6,1.3,5.1,3.3,6.7c2.2,1.7,1.8,3.4,1,5.7
			c-6,17-11.8,34-18,50.9c-2.3,6.2-1.2,5.7,1.9,9.4c10,11.9,28,14.1,38,2.4c4.2-4.9,6.2-4.6,3.6-12.2c-5.8-17.3-11.2-34.7-16.7-52.1
			c-1.1-3.4,2.4-8.4,5.7-8.4c6.2,0,12.4,0,18.6,0c2.9,0,4.5,1.6,4.5,4.5c0,7.5-0.1,15,0.1,22.5c0,2.4-0.9,2.6-2.6,2.2
			c-3.4-0.8-6.3-2.6-9.2-4.6c-0.3,2.8-0.3,2.8,1,4.4c7,8.4,20.9,8.3,27.7-0.2c1-1.2,1.4-2.4,0.8-4.1c-2.6,1.7-5,3.5-7.9,4.4
			c-2.2,0.7-3.4,0.6-3.3-2.5c0.2-7,0-14.1,0.1-21.1c0-3.9,1.3-5.3,4.7-5.3c6.9,0,13.9,0,20.8,0c3.3,0,6.7,5.1,5.6,8.4
			c-5.6,17.7-11.1,35.5-16.9,53.1c-1.9,5.6-1.9,3.6,1.8,8.2c9.3,11.6,26.1,15.2,36.6,4.8C251.5,410,252.9,410.5,249.8,401.6z
			 M148.3,407c-4.3-0.2-8.7-0.1-13,0c-1.4,0-2.2-0.2-1.6-2.1c5.7-16.8,11.3-33.7,17-50.5c0.1-0.2,0.3-0.3,0.6-0.6
			c0,16.8-0.1,33.4,0.1,49.9C151.4,406.3,150.8,407.1,148.3,407z M160.8,373.8c3.2,10.2,6.3,20.5,9.5,30.7c0.6,1.9,0.5,2.6-1.6,2.5
			c-4.2-0.1-8.5-0.1-12.7,0c-1.7,0-2-0.7-2-2.4c0-16.9,0-33.9,0-50.8c0.2-0.1,0.3-0.1,0.5-0.2C156.6,360.3,158.7,367,160.8,373.8z
			 M178.1,322.8c-3.2-2.7-3.2-6.3,0.2-8.9c2.9-2.2,6.3-2.9,9.8-2.9c3.5,0.1,6.8,0.8,9.8,2.9c3.4,2.5,3.5,6.1,0.3,8.9
			C193.2,326.9,183,327,178.1,322.8z M223.6,407c-3.9-0.2-7.8-0.1-11.8,0c-1.6,0-2.3-0.2-1.6-2.3c5.2-16.6,10.3-33.3,15.5-50
			c0.1-0.3,0.3-0.5,0.8-1.2c0,17.1,0,33.7,0.1,50.3C226.6,406.3,225.9,407.1,223.6,407z M245.3,407c-4.8-0.1-9.5-0.1-14.3,0
			c-1.8,0-1.9-0.9-1.9-2.5c0-16.9,0-33.7,0-50.6c0.2-0.1,0.3-0.1,0.5-0.2c4.2,12.5,8.4,25.1,12.6,37.6c1.5,4.4,2.9,8.8,4.4,13.2
			C247.2,406.2,247.3,407,245.3,407z"/>
	</g>
	<path class="st131" d="M291,278.3c-3.9,4.2-8.4,5.7-13.4,6.3c-13.1,1.4-22.5-5.7-30.9-15.4c-1.6-1.8-3.1-3.8-4.7-5.6
		c-1.1-1.3-0.9-1.8,0.6-2.7c11.1-6.7,24.7-4.8,33.7,4.9C280.7,270.5,285.1,275.1,291,278.3z"/>
	<path class="st131" d="M310.6,260.6c10.7-4.1,21.1-6.4,31.8-2.2c5.8,2.3,10.6,6.2,12.4,13.1c1.6,6-1.6,11.4-7.3,12.4
		c-4.9,0.9-9.4-0.5-13.6-3c-3.3-2-6.4-4.3-9.4-6.9C319.7,269.9,315.1,265.7,310.6,260.6z"/>
	<path class="st132" d="M190.6,282.4c-10.6,0.9-20.5,2.2-30.3,0.1c-6.2-1.3-11.2-4.9-14.4-10.9c-3.6-6.7-1.4-12.3,5.5-14.1
		c5.3-1.4,10.3-0.2,14.9,2.8C175.2,266.1,182.5,274.1,190.6,282.4z"/>
	<path class="st131" d="M190.3,257.9c6.6,0.2,12.1,2.3,16.7,6.6c5.3,4.9,10.4,10,15.7,14.9c2.1,1.9,1,2.7-0.5,3.7
		c-6.6,4.7-18.3,4.5-25.4-1.1c-6.8-5.4-12.8-11.8-18.7-18.4c-1.1-1.3-1-1.8,0.5-2.6C182.5,259,186.6,258.2,190.3,257.9z"/>
	<path class="st132" d="M301.5,259.6c9,5.7,16.3,13.7,24.3,21.8c-12.1,2.5-23.3,2.8-33.5-5c-6.3-4.8-11.7-10.8-18.2-16.2
		c8.5-5,16.7-5.9,25.3-1.7C300.2,258.7,301,258.8,301.5,259.6z"/>
	<path class="st132" d="M253.5,281.6c-10.4,2.9-19.9,3.8-28.6-3.8c-6.3-5.5-12-11.9-19.1-16.5c10-7,20.2-6.4,29.1,1.5
		c0.7,0.7,1.5,1.3,2.2,2C242.5,270.2,247.4,276.3,253.5,281.6z"/>
	<path class="st132" d="M154.4,86.1c-0.5-1.9-1.2-3.7-1.6-5.6c-1.2-5.2,1-8.4,5.9-8.3c4.2,0,2.7,1.7,4.4,1.6
		c2.4-0.1,0.7-4.4,5.9-4.4c7.2,0,5.2,4.9,6.9,4.9c1.6,0,2.1-2.1,3.8-2.1c6.2-0.2,6.8,4.4,4.3,10.6c-0.4,1-0.6,2.2-0.8,3.3
		c-0.3,1.3-1.4,0.9-2.1,0.9c-7.9,0-15.8,0-23.8,0C156.3,87,155.2,87,154.4,86.1z"/>
	<path class="st132" d="M249.7,90.7c-0.3-5.1,0-10.1,1.6-14.9c2-6.2,6.2-9.4,11.6-9.1c1,0.1,2.4-0.3,2.7,1.1c0.3,1.4,0.2,2.8-1.1,4
		c-2.5,2.3-4.9,4.7-7.2,7.1C254.2,82.3,251.7,86.3,249.7,90.7z"/>
	<path class="st132" d="M241.1,77.5c-1.2-9.1,7.7-20.3,15.8-20.1c1.9,0,1.3,0.9,0.9,2.2c-1.8,5.5-4.6,10-9.8,12.6
		C245.6,73.4,243.6,75.6,241.1,77.5z"/>
	<path class="st132" d="M259.1,82.4c0.9,2.4,1.6,2.2,3,1.2c2.5-1.9,5-4.2,8.3-3.8c-5.9,8.1-9.6,17.4-13.5,27.2
		C252.9,98.3,257,90.8,259.1,82.4z"/>
	<path class="st134" d="M306.1,72.3c5.4,0.7,11.4,3.2,21-6.5c-0.2,0.2-1.6,16.3-22.8,13.7c-0.7-0.1-17.5-3.6-17.7-3.9
		c-0.2-0.3,0.2-6.5,0.6-6.9C287.6,68.4,299.1,71.4,306.1,72.3z"/>
	<path class="st132" d="M272.8,58.7c-0.2,0.4-0.3,0.5-0.3,0.6c-3,5.5-8.1,5-12.9,5.1c-1.5,0.1-1.5-0.7-1.1-1.9
		c0.8-2.7,6.3-7.9,8.6-7.3C269.1,55.6,270.9,57.4,272.8,58.7z"/>
	<path class="st132" d="M259.5,45.6c5.3-5.7,11.4-5.6,14.6-0.3c0.9,1.5,0.6,2-0.8,2.7c-2.4,1.3-4.6,1.7-7.1,0.2
		C264.2,47.1,261.9,46.5,259.5,45.6z"/>
	<path class="st132" d="M266.4,94.3c-0.7-4.1,0.6-7.2,3.4-9.5c1.4-1.1,2.8-1.9,3.3-3.9c0.4-1.2,1.5-2,2.8-1.4
		c1.4,0.7,0.1,1.8,0.1,2.6c0.1,2.7-1.3,4.1-3.3,5.2C270.1,89,268.3,91.7,266.4,94.3z"/>
	<path class="st132" d="M272.2,70.3c0.8,0.1,2-0.1,2,1c0,1.3-0.5,2.9-1.7,3.5c-2.9,1.3-5.9,2.3-8.6,4.2c-0.5,0.3-1.2,0.3-1.3-0.3
		c-0.2-0.6,0-1.4,0.2-2C263.9,73.4,268.7,70.2,272.2,70.3z"/>
	<path class="st132" d="M388.8,161.9c0.6-0.3,0.6-0.9,0.7-1.5c0.6,0.6,0.6,1.3,0.7,2.1c0.2,0.3,0.1,0.6-0.1,0.9
		C389.5,163,389.1,162.6,388.8,161.9z"/>
	<path class="st132" d="M259,186.8c0-0.6,0.4-1.3,0.8-1.1c0.8,0.5,0.3,1.2-0.1,1.8C259.4,187.2,259.2,187,259,186.8z"/>
	<path class="st132" d="M248.8,22.5c-0.2,0-0.5,0-0.7,0.1c-0.1-0.2-0.2-0.3-0.3-0.5C248.3,21.8,248.6,22,248.8,22.5z"/>
	<path class="st135" d="M390.1,163.3c0-0.3,0.1-0.6,0.1-0.9c0.1,0.3,0.5,0.7,0.4,1C390.5,163.9,390.3,163.6,390.1,163.3z"/>
	<path class="st132" d="M217.3,121.2c1.1,0.3,3,1.8,4.1,2c5.4,1,5.2,4.3,3.6,10.1c-1.7,6.1-5.5,11.6-5.3,18.3
		c-3.1-0.7-9.1-2.2-11.6-4.1c0-0.9,3.9-8.1,4.6-11.1C212.9,136,216.2,121,217.3,121.2z"/>
	<path class="st41" d="M265,209.3c0.3-0.2,0.6-0.5,0.8-0.7c0.2,0.2,0.2,0.3,0.2,0.5c-0.1,0.1-0.1,0.2-0.2,0.2c0,0-0.1,0.1-0.1,0.1
		C265.5,209.4,265.3,209.4,265,209.3z"/>
	<path class="st132" d="M269.7,160.3c0,0.3-0.1,0.7-0.1,1c-0.1-0.3-0.4-0.7-0.4-1C269.2,160,269.5,160,269.7,160.3z"/>
	<path class="st132" d="M261.6,139.8c0.1,0.3,0.3,0.6,0.4,0.8C261.9,140.4,261.7,140.1,261.6,139.8z"/>
	<path class="st132" d="M223,147.5c3.1-7.9,5.8-15.9,6.4-24.7c0-0.5,0.6-0.9,0.9-1.2c2.8-2.7,3.3-4.7,5.2-9c0,5.7,0.5,8.5,0.5,14
		c3.3-4,5.2-8.2,7.9-12.5c0.6,2.4-0.2,4.1-0.2,5.8c-0.4,0.4,0.1,1.6-1,1.3c-0.6,0-0.9,0.4-1,0.9c-3.1,9.3-11.3,15.8-14.4,24.6
		c-0.1,0.2-0.7-0.3-0.8,0c-0.1,0.1-0.1,0.2-0.2,0.2c-0.3,0.2-0.5,0.3-0.8,0.5c-0.2,0.2-0.3,0.3-0.5,0.5c-0.1,0.1-0.2,0.2-0.2,0.3
		c-0.2,0.1-0.4,0.2-0.6,0.3c-0.4,0-0.7-0.1-1-0.2C222.7,148.1,222.8,148,223,147.5z"/>
	<path class="st132" d="M254.5,153.7c-1.3,0.4-1.1,1.5-0.9,2.6c0.9,4.4,1.5,8.9,2.8,13.3c-3.4-0.2-7.1-3.7-8.3-7.9
		c-0.7-2.4-2.7-6.5-4.1-8.6c0.3-2.2,1.9-4,2.5-6.1c0.5-2,1.8-6.2,2.2-8.6c1.4,2.7,3.6,9.3,5,11.9
		C254.3,151.5,254.8,152.5,254.5,153.7z"/>
	<path class="st132" d="M242.9,120.1c0.3-0.4,0.8-2.5,1.1-2.9c-0.3,3.6,0.4,8.7,1.8,11.9c1,2.3,1,4.4,0.4,6.8
		c-0.8,3.2-1.8,6.3-3.1,9.3c-1.2,2.7-2.2,5.5-2.6,8.6c-3-1.5-3.6-4.2-3.3-7.1c0.3-2.7,1.5-5.4,1.2-8c-0.5-4.7,1.3-8.4,3.3-12.1
		C242.8,124.7,243.2,122.5,242.9,120.1z"/>
	<path class="st134" d="M290.4,50.8c-1.3,0.1-2.5-0.3-2.6-1.6c-0.2-1.4,1.1-1.8,2.2-1.8c1.1-0.1,2.3,0.2,2.5,1.6
		C292.6,50.6,291.2,50.6,290.4,50.8z"/>
	<path class="st132" d="M224.9,147.4c-0.3,0-0.6,0-0.8,0c0.3-0.2,0.5-0.4,0.8-0.6C224.8,147,224.8,147.2,224.9,147.4z"/>
	<g transform="translate(-392.42604,50.179417)">
		<g transform="matrix(1.1495,0,0,1.1495,644.56407,772.72521)">
			<g>
				<g transform="translate(-76.696114,-19.174029)">
					<path id="path4483_3_" class="st136" d="M13.4-539v-86.3"/>
					<path class="st137" d="M-26.9-598.7h6.8v40.1c0,0-3.1-5-3.9-6.7c-0.8-1.6-2.8-6.4-2.8-6.4V-598.7z"/>
					<path class="st137" d="M-14.6-598.7h6.8v55c0,0-2.6-2.5-4.3-4.3c-1.7-1.8-2.5-3-2.5-3V-598.7z"/>
					<path class="st137" d="M41.7-601.3h-6.8v40.6c0,0,3.1-5.4,3.9-7.1c0.8-1.6,2.8-8.6,2.8-8.6V-601.3z"/>
					<path class="st137" d="M29.7-600h-6.8v55c0,0,2.5-2.4,4.2-4.5c1.6-1.9,2.5-3.2,2.5-3.2V-600z"/>
					<path class="st137" d="M-2.2-598.7h6.8v62c0,0-3,1.3-4.8-1c-1.7-2.2-2-1.6-2-1.6V-598.7z"/>
				</g>
			</g>
			<path class="st138" d="M-111.4-648.1l82.5,0.7c0,0,0.6,10.7,0.4,14.4c-0.2,3.8-1.3,15.1-1.3,15.1H-111c0,0-1-11.3-1.1-15.1
				C-112.1-636.8-111.4-648.1-111.4-648.1z"/>
			<path class="st139" d="M-70.1-647.8c13.5,0,26.9,0,40.4,0c0.8,0,1,0.2,1,1c2.3,34.7-7.6,78.4-41.4,94
				c-30.2-15.6-42.6-52.1-41.5-84.6c0-3.3,0.2-6.6,0.3-9.9c0-0.4,0.1-0.6,0.5-0.5c0.2,0,0.4,0,0.6,0
				C-96.9-647.8-83.5-647.8-70.1-647.8z"/>
		</g>
	</g>
	<g>
		<path class="st132" d="M393.6,145.1c-1.2-2.1-8.5-13.6-5.9-14.4c2.6,0.7,5.1,2.6,8.8,1.8c-14.4-12.8-23.3-37.8-46.3-34.4
			c-16.1,3-24.7,18.8-19.9,36.6c5,21.5,22.5,32.5,36,47.8c11.9,13.1,7.3,41.5-11.2,44.5c-1.8,0.4-2.5,0.1-2.3-2
			c1.8-30.6-33.9-35.8-47.2-57c-2-4.7-16.8-38.1-2.9-31.4c0.4-6.7-11.9-7.1-10.2-14.4c0.9-4,7.9-2.7,11.4-0.8
			c0.9,0.3,1.6,1.6,2.8,0.9c-2.5-6.5-11.4-7.2-15.9-12.2c-4.1-3.1-1.7-10.2,3.8-8c3.8,0.8,7.1,2.8,10.4,4.9c0.7,0.4,1.4,1.7,2.1,0.8
			c0.9-1-0.2-1.9-0.9-2.6c-5.9-8.1-15.2-9-23-13.7c-1.3-1.2-2.6-2.6-1.6-4.7c3.6-7.5,19.8,8.2,22.6,0.1c0.2-2.8,1.8-3.1,1.8-5.8
			c0-0.7-1.3-1.9-3.4-2.6l-5.9-1.7c-5.8-0.7-4.6-12.4,0.9-10.8c7.7,2.3,9.3,4.5,12.1,4.2c2.3-0.2,3.8-6.5,4.5-8.9
			c0.1-0.3-0.4-1-0.3-1.3c3.1-5.8,0.3-6.9-7.4-9.1c-6.5-0.6-6-9.3-11.5-11.2c-5.3-2.3-26.1-4.4-17.5,6.1c4.9,6.5-17.8,4.4-0.5,13.6
			c-2.5,2.3-11,7.6-3.3,8.8c1.7,0.2,4.2-0.3,4.9,1.4c0.8,2.4-5.1,4.8-4.2,7.8c1,2.9,4.4-0.6,5.5,1.5c0.6,2.3-2.8,2.7-2.9,6.8
			c-0.2,0.9-0.1,1.8-1.1,2.3c-4.6,2.4-7.5,6.4-9,11.8c-1.5-0.7-1.7-2.5-3-3.4c-3.5,5.9-4.8,12.5-5.5,19.8
			c-4.7-8.9-6.3-17.8-3.8-27.2c0.2-0.1,0.2-0.6-0.1-0.8c-2.9,2.4-3.9,6-5.3,9.8c-2.4-7.8-2.4-15.2-0.5-22.9
			c-4.3,2.1-6.4,6.2-9.2,9.7c-2-11.4,1-20.3,9.3-26.9l0,0c-2.1,0.5-4.3,0.1-6.9,0.7c5.7-7.6,15.9-2.4,23.8-4.8
			c6.2-1.7-6.4-7.1-8.6-6.2c-1.8,0.2-1.2-1-0.8-1.9c2-4.4,5.6-6.3,9.9-7c1-0.1,1.2,1.2,2.2-0.1c-6.7-5.5-4.5-7.2,1.8-1.8
			c6.5,4.2,13.7-3,13.9-10.5c-5.1,6.4-12.7,9.6-13.2-1.6c0-1.5,0.2-3-0.8-4.3c-2.5,2-1.9,7.1-5.3,7.9c-3.8-0.2-2.5-6.9-6.5-6.8
			c0.3,2.8,1.1,7.5-2,8.9c-3.7,0.5-4.4-7.9-8.2-7.5c0.7,3,3.9,7.2,0.9,9.8c-2,1.5-3.5-0.5-4.9-1.7c-1.5-1.3-2.1-3.6-4-4.7
			c-2.6,7.3,5.4,12.5,2.9,15.1c-4.4,2.7-9.8-6.9-12.2-10.2c-4.5,12.4,11.8,17.3,9.4,26.5c-3.4,4.7-15-0.9-17.2-5.9
			c0.7,8.4,4.3,14.4,11.8,17.9c-6.1,3.5-12.7,3.8-17.8-0.7c0,0,0,0,0,0c-0.2-0.5-0.6-1.1-1-0.8c-0.7,0.5,0.6,1.1,0.8,1.6
			c0,0,0,0,0,0c1.6,3.1,3.9,5.2,6.6,7.1c4.3,2.9,7.7-1.7,11.7-1.4c0,0.9-0.5,1.5-1,1.7c-6.2,1.8-8.5,8.1-13.2,11.9
			c-0.2,0.4-0.1,0.7,0.1,1c5.5,4.3,9.4-3,13-5.6c-0.6,0.4-0.7,1.1-1.2,1.6c0,0.1-0.7,0.8-0.7,0.8c-5.7,7.7-7.6,22.9-11.5,33.6
			c-1.1,3,2.7,2.5,4.1,1.2c10-5.9,12.4-19.1,11.2-29.7c1.5,15.8-2.1,43.3,10.7,9.9c0.6,20.6-0.2,28.2,9.3,47.3
			c0.5,1.2,1.3,2.4,0.5,3.9c-1.5,6.4,1.9,19,5,25.3c-18-2.3-14-22.6-18.7-22.9c-1.9,2.6-0.4,6.3-1.8,8.8c-6.2-1.1-6.2-10.7-5.7-15.8
			c1.5-5.5,1-13.1-4.7-5c-1.9,4.7-4.2,9.3-5.5,14.3c-0.3,1.2-0.8,2.5,0.1,3.6c1.1,1.4-0.9,4.8-0.3,3.8c-3.5,6.6-7,8.8-16.9,14.9
			c-2.9,1.8-8.6,7.9-14.3,7c-4.2-0.7-3.5,0.3-6.3-4.3c-1.5-2.5-3.5-2.9-6.4-3c-3.5,0-4.6,5.4-5.2,5.6c-2.5,0.8,0.5-9.7-9.1-8.3
			c-3.1,0.4-6.8,9.1-0.5,16c3.7,4,13.4,8.3,27.1,8.1c9.3-0.1,18.4-3.9,30.7-9.7c0,0,18.2-7.9,19.6-18.9c0.1-0.9,0.2,1.4,0,0
			c1.7,14.5-16.3,29-13.1,47.4c6.7-14.8,22.5-18,28.5-32.7c2.5,0.1-3.2,10.4-4.7,11.4c-5,6.1-10.7,14.5-8.4,22.9
			c2.9-10.7,14.7-6.8,20.8-13.2c-3.1,5.4-9.7,7.4-8.3,15.1c11.5-7.7,26.7-9.2,29.5-25.6c1,16-9.2,7.3,12.2,24.7
			c7.5,6.8,13.3-8.1,19.3-4.9c0.7,1.2-0.3,1.6-1,2c-7.5,3.7-13.8,9.1-18.4,16.5c-1.6-0.4-1.3-3.2-2.8-2.6c-3.1,3.7-0.4,10.7,0.7,15
			c1.1,3.1,2.2,6.2,2.3,9.6c0.1,1.3,1.1,1.2,1.8,1.4c1.8-0.1,3.2,2.5,5.2,0.7c4.5-4.2,10-6.3,15.5-8.3c5.4-2,11.2-2.4,16.5-4.7
			c3.7-1.6,6.8-5,10.3-5.6c7.8-0.6,15.9,1.3,23.4-3.2c-2.4-1.1-4.6-1.7-4.6-4.7c0.6-4.2,13.3-3.6,13.5-10.2c-1.4-0.3-3,1.1-3.8-0.7
			c-0.6-1.4,0.8-1.9,1.5-2.6c4.5-4,8.8-8.4,9.3-14.9c0.4-1.9-1.2-3.1-2.1-1c-1.3,2.4-4.6,2.1-4.9-0.7c1.1-5.9,3.6-10.8,1.8-17.9
			c-1.4,2.7-1.2,6.3-4.5,6.1c-5.9-4.1-0.2-15.8-6.7-20.4c-0.4,0.8-0.1,1.4,0.1,2.1c1.1,3.3-2.4,4.7-3.7,1.5
			c-2.9-4.6-1.5-12-6.3-15.3c3.3,20.1-27.8-20.6-26.2-26.6c-9-35.3,40.7-38.7,37.2-7c0,1.9-1.1,4.3,0,5.9c0.7-0.7,0.6-2,1.7-2.2
			c0.2,7.4-0.8,14.7,1.7,22.4c0.9-3.8,0.8-7.4,3.5-10.2c1.4,7.8,3.3,14.9,8.2,20.5c2.7,0.1-2.5-13.9,0.3-15.1c3.1,0,4.1,4.7,8.2,4.6
			C395.9,149,394.8,147,393.6,145.1z M286.3,46.6c3.1-4.6,10.8-1.4,7.1,3.8c-1.7,2.9,1.7,1.8,2.7,3.6
			C291.5,55.1,282.7,52.4,286.3,46.6z M262.5,103c0.5,8.9,2.3,14.4,6.9,21.4c0.9,0.4,2-1.1,1.8-3.1c-0.7-5.7,0.6-8.5,1.4-14.2
			c-0.5-4.9-3.9-7.3-2.4-12.8c1.9,5.7,3,10.6,8.3,12.6c-0.7-6.1,1.7-9.2-0.2-15.2c6,6.7,0.9,16.1,5.3,23.3c0.2,0.4,0,1.1,0,2
			c-3.6-1.9-6.3-4.5-9.6-7.3c-1.3,7.4,0.1,14.4,0.8,21.6C265.6,126.5,258.9,111.4,262.5,103z M261.6,118.3c5.3,14.4-6.7,24.6-1,30.8
			C247.3,134.5,257.5,126.8,261.6,118.3z M267.4,207c-0.2,0.2-0.3,0.4-0.4,0.5c0.2-0.2,0.3-0.6,0.7-0.7
			C267.6,206.9,267.4,207,267.4,207z M268,194c-1,2.8-3.2,1.5-1.6-0.9c0,0,2.8-19.2,2.8-19.2c0.3-4.4,0.5-9.5,0.5-13.5
			C276.5,170,272.7,184.1,268,194z M262.4,145.5c-0.8-1-1.1-2.2-1.2-3.4c-0.5-1.5,0.1-5,1.5-7.1c0.5,1.9,0.6,3.7,1,5.2
			c0,0,0.4,0.4,0.4,0.4c6.7,7.5,9.5,16.3,11.6,16.3C271.2,157,264.4,151.9,262.4,145.5z M274.9,154.3c-1-8.5-2.7-16.7-5.1-24.3
			c1.5-0.2,1.7,1,2.3,1.8C275.6,137.1,280,144.2,274.9,154.3z M286.7,137c-5.8,3.2-10.2-10.7-10.6-15.7c0.3,3.3,5.7,8.1,9.6,14.5
			C286,136.3,286.8,136.3,286.7,137z M288.6,123.9c-1.2-4-2.6-8.9-3.1-13.2C288.8,112.3,291.3,117.8,288.6,123.9z"/>
	</g>
	<path class="st140" d="M157.9,83.5l-1.8-6.6c0,0,0.2-1,1.8-1c1.4,0,1.8,1,1.8,1L157.9,83.5z"/>
	<path class="st140" d="M169.3,83.5l-1.8-6.6c0,0,0.2-1,1.8-1c1.4,0,1.8,1,1.8,1L169.3,83.5z"/>
	<path class="st140" d="M307,74.9l0.1-5.2c0,0,0.4-0.7,1.5-0.4c1,0.3,1.1,1.1,1.1,1.1L307,74.9z"/>
	<path class="st141" d="M166.3,192.5c0,0-10.1-8.1-8.6-14l7.9,6.7L166.3,192.5z"/>
	<path class="st140" d="M179.4,83.6l-1.8-6.6c0,0,0.2-1,1.8-1c1.4,0,1.8,1,1.8,1L179.4,83.6z"/>
	<path class="st140" d="M182.3,171.9l1.7,7.7c0,0-0.2,1.2-1.8,1.2c-1.4,0-1.8-1.2-1.8-1.2L182.3,171.9z"/>
	<path class="st140" d="M167.8,169.6l2.3,6.5c0,0-0.1,1-1.7,1.2c-1.3,0.1-1.8-0.9-1.8-0.9L167.8,169.6z"/>
	<path class="st140" d="M305.8,75.2l-0.5,5.3c0,0-0.4,0.7-1.6,0.3c-1-0.4-1-1.2-1-1.2L305.8,75.2z"/>
	<path class="st140" d="M158.8,173.6l2.3,6.5c0,0-0.1,1-1.7,1.2c-1.3,0.1-1.8-0.9-1.8-0.9L158.8,173.6z"/>
	<path class="st132" d="M384.6,401.6c-5.9-16.9-11.8-33.8-17.8-50.7c-0.6-1.7-1-2.9,0.8-4.2c2.1-1.5,3.2-4.1,3.7-6.8
		c0.2-0.8,1.1-2.2-0.1-2.7c-1-0.4-2.3-0.3-3.3,0c-1,0.3-0.8,1.7-1.2,2.6c-0.8,1.8-1.7,3.5-3.7,3.5c-1.8,0-3.1-1.5-3.5-3.3
		c-0.6-2.8-2.2-3.1-4.5-3.1c-7.9,0.1-15.7,0-23.6,0.1c-2.7,0-3.6-1.9-4.2-3.9c-0.7-2.7,1.7-2.2,3-2.6c2.7-0.9,5.3-2,7.4-4
		c4.5-4.1,4.5-10,0-14.2c-6.9-6.5-20.9-6.5-27.7,0.1c-4.3,4.1-4.2,9.9,0,14c2.6,2.4,5.6,3.8,8.9,4.3c1.8,0.3,2.2,1.6,1.6,2.8
		c-0.9,1.7-1.7,3.6-4.3,3.5c-7.2-0.2-14.5,0-21.7-0.1c-1.8,0-3.1,0.1-3.6,2.5c-0.4,2-1.6,3.8-3.8,3.9c-2.2,0-3.1-1.9-3.8-3.8
		c-0.2-0.5-0.3-1.1-0.5-1.6c-0.9-1.7-2.4-1-3.6-0.8c-1.5,0.2-0.6,1.6-0.4,2.4c0.4,2.6,1.3,5.1,3.3,6.7c2.2,1.7,1.8,3.4,1,5.7
		c-6,17-11.8,34-18,50.9c-2.3,6.2-1.2,5.7,1.9,9.4c10,11.9,28,14.1,38,2.4c4.2-4.9,6.2-4.6,3.6-12.2c-5.8-17.3-11.2-34.7-16.7-52.1
		c-1.1-3.4,2.4-8.4,5.7-8.4c6.2,0,12.4,0,18.6,0c2.9,0,4.5,1.6,4.5,4.5c0,7.5-0.1,15,0.1,22.5c0,2.4-0.9,2.6-2.6,2.2
		c-3.4-0.8-6.3-2.6-9.2-4.6c-0.3,2.8-0.3,2.8,1,4.4c7,8.4,20.9,8.3,27.7-0.2c1-1.2,1.4-2.4,0.8-4.1c-2.6,1.7-5,3.5-7.9,4.4
		c-2.2,0.7-3.4,0.6-3.3-2.5c0.2-7,0-14.1,0.1-21.1c0-3.9,1.3-5.3,4.7-5.3c6.9,0,13.9,0,20.8,0c3.3,0,6.7,5.1,5.6,8.4
		c-5.6,17.7-11.1,35.5-16.9,53.1c-1.9,5.6-1.9,3.6,1.8,8.2c9.3,11.6,26.1,15.2,36.6,4.8C386.3,410,387.7,410.5,384.6,401.6z
		 M283.1,407c-4.3-0.2-8.7-0.1-13,0c-1.4,0-2.2-0.2-1.6-2.1c5.7-16.8,11.3-33.7,17-50.5c0.1-0.2,0.3-0.3,0.6-0.6
		c0,16.8-0.1,33.4,0.1,49.9C286.2,406.3,285.6,407.1,283.1,407z M295.6,373.8c3.2,10.2,6.3,20.5,9.5,30.7c0.6,1.9,0.5,2.6-1.6,2.5
		c-4.2-0.1-8.5-0.1-12.7,0c-1.7,0-2-0.7-2-2.4c0-16.9,0-33.9,0-50.8c0.2-0.1,0.3-0.1,0.5-0.2C291.4,360.3,293.5,367,295.6,373.8z
		 M312.9,322.8c-3.2-2.7-3.2-6.3,0.2-8.9c2.9-2.2,6.3-2.9,9.8-2.9c3.5,0.1,6.8,0.8,9.8,2.9c3.4,2.5,3.5,6.1,0.3,8.9
		C328,326.9,317.8,327,312.9,322.8z M358.4,407c-3.9-0.2-7.8-0.1-11.8,0c-1.6,0-2.3-0.2-1.6-2.3c5.2-16.6,10.3-33.3,15.5-50
		c0.1-0.3,0.3-0.5,0.8-1.2c0,17.1,0,33.7,0.1,50.3C361.4,406.3,360.8,407.1,358.4,407z M380.1,407c-4.8-0.1-9.5-0.1-14.3,0
		c-1.8,0-1.9-0.9-1.9-2.5c0-16.9,0-33.7,0-50.6c0.2-0.1,0.3-0.1,0.5-0.2c4.2,12.5,8.4,25.1,12.6,37.6c1.5,4.4,2.9,8.8,4.4,13.2
		C382,406.2,382.1,407,380.1,407z"/>
	<g>
		<path class="st132" d="M317.7,536.7c-5.9-16.9-11.8-33.8-17.8-50.7c-0.6-1.7-1-2.9,0.8-4.2c2.1-1.5,3.2-4.1,3.7-6.8
			c0.2-0.8,1.1-2.2-0.1-2.7c-1-0.4-2.3-0.3-3.3,0c-1,0.3-0.8,1.7-1.2,2.6c-0.8,1.8-1.7,3.5-3.7,3.5c-1.8,0-3.1-1.5-3.5-3.3
			c-0.6-2.8-2.2-3.1-4.5-3.1c-7.9,0.1-15.7,0-23.6,0.1c-2.7,0-3.6-1.9-4.2-3.9c-0.7-2.7,1.7-2.2,3-2.6c2.7-0.9,5.3-2,7.4-4
			c4.5-4.1,4.5-10,0-14.2c-6.9-6.5-20.9-6.5-27.7,0.1c-4.3,4.1-4.2,9.9,0,14c2.6,2.4,5.6,3.8,8.9,4.3c1.8,0.3,2.2,1.6,1.6,2.8
			c-0.9,1.7-1.7,3.6-4.3,3.5c-7.2-0.2-14.5,0-21.7-0.1c-1.8,0-3.1,0.1-3.6,2.5c-0.4,2-1.6,3.8-3.8,3.9c-2.2,0-3.1-1.9-3.8-3.8
			c-0.2-0.5-0.3-1.1-0.5-1.6c-0.9-1.7-2.4-1-3.6-0.8c-1.5,0.2-0.6,1.6-0.4,2.4c0.4,2.6,1.3,5.1,3.3,6.7c2.2,1.7,1.8,3.4,1,5.7
			c-6,17-11.8,34-18,50.9c-2.3,6.2-1.2,5.7,1.9,9.4c10,11.9,28,14.1,38,2.4c4.2-4.9,6.2-4.6,3.6-12.2c-5.8-17.3-11.2-34.7-16.7-52.1
			c-1.1-3.4,2.4-8.4,5.7-8.4c6.2,0,12.4,0,18.6,0c2.9,0,4.5,1.6,4.5,4.5c0,7.5-0.1,15,0.1,22.5c0,2.4-0.9,2.6-2.6,2.2
			c-3.4-0.8-6.3-2.6-9.2-4.6c-0.3,2.8-0.3,2.8,1,4.4c7,8.4,20.9,8.3,27.7-0.2c1-1.2,1.4-2.4,0.8-4.1c-2.6,1.7-5,3.5-7.9,4.4
			c-2.2,0.7-3.4,0.6-3.3-2.5c0.2-7,0-14.1,0.1-21.1c0-3.9,1.3-5.3,4.7-5.3c6.9,0,13.9,0,20.8,0c3.3,0,6.7,5.1,5.6,8.4
			c-5.6,17.7-11.1,35.5-16.9,53.1c-1.9,5.6-1.9,3.6,1.8,8.2c9.3,11.6,26.1,15.2,36.6,4.8C319.4,545.1,320.8,545.6,317.7,536.7z
			 M216.2,542.1c-4.3-0.2-8.7-0.1-13,0c-1.4,0-2.2-0.2-1.6-2.1c5.7-16.8,11.3-33.7,17-50.5c0.1-0.2,0.3-0.3,0.6-0.6
			c0,16.8-0.1,33.4,0.1,49.9C219.3,541.4,218.7,542.2,216.2,542.1z M228.7,508.8c3.2,10.2,6.3,20.5,9.5,30.7
			c0.6,1.9,0.5,2.6-1.6,2.5c-4.2-0.1-8.5-0.1-12.7,0c-1.7,0-2-0.7-2-2.4c0-16.9,0-33.9,0-50.8c0.2-0.1,0.3-0.1,0.5-0.2
			C224.5,495.4,226.6,502.1,228.7,508.8z M246,457.9c-3.2-2.7-3.2-6.3,0.2-8.9c2.9-2.2,6.3-2.9,9.8-2.9c3.5,0.1,6.8,0.8,9.8,2.9
			c3.4,2.5,3.5,6.1,0.3,8.9C261.1,462,250.9,462,246,457.9z M291.5,542.1c-3.9-0.2-7.8-0.1-11.8,0c-1.6,0-2.3-0.2-1.6-2.3
			c5.2-16.6,10.3-33.3,15.5-50c0.1-0.3,0.3-0.5,0.8-1.2c0,17.1,0,33.7,0.1,50.3C294.4,541.4,293.8,542.2,291.5,542.1z M313.2,542.1
			c-4.8-0.1-9.5-0.1-14.3,0c-1.8,0-1.9-0.9-1.9-2.5c0-16.9,0-33.7,0-50.6c0.2-0.1,0.3-0.1,0.5-0.2c4.2,12.5,8.4,25.1,12.6,37.6
			c1.5,4.4,2.9,8.8,4.4,13.2C315.1,541.3,315.2,542.1,313.2,542.1z"/>
	</g>
</g>
<g id="United_For_All">
</g>
<g id="Layer_10">
</g>
<g id="Scale">
</g>
</svg>
