<?xml version="1.0" encoding="utf-8"?>
<!-- Generator: Adobe Illustrator 24.2.1, SVG Export Plug-In . SVG Version: 6.00 Build 0)  -->
<svg version="1.1" xmlns="http://www.w3.org/2000/svg" xmlns:xlink="http://www.w3.org/1999/xlink" x="0px" y="0px"
	 viewBox="0 0 207.5 144" style="enable-background:new 0 0 207.5 144;" xml:space="preserve">
<style type="text/css">
	.st0{display:none;}
	.st1{fill:#E6CB39;}
	.st2{display:none;opacity:0.85;}
	.st3{fill:#DCBF26;}
	.st4{fill:#FEFEFB;}
	.st5{fill:#545151;}
	.st6{fill:#010101;}
	.st7{fill:#010201;}
	.st8{fill:#DCBF27;}
	.st9{fill:#2F2D26;}
	.st10{fill:#EC2828;}
	.st11{fill:#DCBF28;}
	.st12{fill:#DDC02B;}
	.st13{fill:#DCBF29;}
	.st14{fill:#2E2D2D;}
	.st15{fill:#38333D;}
	.st16{fill:#373535;}
	.st17{fill:#272525;}
	.st18{fill:#242222;}
	.st19{fill:#353535;}
	.st20{fill:#3D3C3C;}
	.st21{fill:#393939;}
	.st22{fill:#383636;}
	.st23{fill:#3D3B3B;}
	.st24{fill:#2E2826;}
	.st25{fill:#F1E5B7;}
	.st26{fill:#454241;}
	.st27{fill:#211F1F;}
	.st28{fill:#E1C646;}
	.st29{fill:#050505;}
	.st30{fill:#EFE0A6;}
	.st31{fill:#F1E4B5;}
	.st32{fill:#E9D583;}
	.st33{fill:#F6D7B8;}
	.st34{fill:#EDDC9B;}
	.st35{fill:#252323;}
	.st36{fill:#EBD88D;}
	.st37{fill:#E1C64A;}
	.st38{fill:#FAF6F5;}
	.st39{fill:#E3CA59;}
	.st40{fill:#EAD687;}
	.st41{fill:#FFFFFF;}
	.st42{fill:#4B4A4B;}
	.st43{fill:#F05941;}
	.st44{fill:#EC2227;}
	.st45{fill:#FFFDFC;}
	.st46{fill:#FFFAF8;}
	.st47{fill:#FFFBFA;}
	.st48{fill:#FEFDF9;}
	.st49{fill:#FDFCF6;}
	.st50{fill:#FDFAF3;}
	.st51{fill:#FEFBF6;}
	.st52{fill:#FCF9F0;}
	.st53{fill:#FCF8EE;}
	.st54{fill:#FBF8EE;}
	.st55{fill:#F8F1DC;}
	.st56{fill:#FAF6E9;}
	.st57{fill:#F9F3E1;}
	.st58{fill:#F8EEDB;}
	.st59{fill:#F9F5E5;}
	.st60{fill:#F6EFD5;}
	.st61{fill:#F7F0D9;}
	.st62{fill:#F9D7C2;}
	.st63{fill:#F6EED2;}
	.st64{fill:#F6EDD0;}
	.st65{fill:#F9F5E6;}
	.st66{fill:#343131;}
	.st67{fill:#F0E3B0;}
	.st68{fill:#EEDFA2;}
	.st69{fill:#F9F3E0;}
	.st70{fill:#E9D687;}
	.st71{fill:#FBF8ED;}
	.st72{fill:#F2E6B9;}
	.st73{fill:#F7C7A5;}
	.st74{fill:#F3D7AD;}
	.st75{fill:#ECDA93;}
	.st76{fill:#F8F2DF;}
	.st77{fill:#FEFEFE;}
	.st78{fill:#FEFDFD;}
	.st79{fill:#FDFDFD;}
	.st80{fill:#DBBE27;}
	.st81{fill:#DABE27;}
	.st82{fill:#F3F2F2;}
	.st83{fill:#646566;}
	.st84{fill:#7E66AA;}
	.st85{fill:#8E7DB1;}
	.st86{fill:#060606;}
	.st87{fill:#8E7FAE;}
	.st88{fill:#8E85A4;}
	.st89{fill:#886C62;}
	.st90{fill:#A87766;}
	.st91{fill:#EC2428;}
	.st92{fill:#C87B63;}
	.st93{fill:#AF7C6A;}
	.st94{fill:#CC755C;}
	.st95{fill:#7F6C65;}
	.st96{fill:#75645D;}
	.st97{fill:#DDC12F;}
	.st98{fill:#262424;}
	.st99{fill:#302D11;}
	.st100{fill:#332C29;}
	.st101{fill:#363535;}
	.st102{fill:#363536;}
	.st103{fill:#363433;}
	.st104{fill:#333035;}
	.st105{fill:#2E2C2B;}
	.st106{fill:#424141;}
	.st107{fill:#3E3B2D;}
	.st108{fill:#333130;}
	.st109{fill:#2C2624;}
	.st110{fill:#ED382E;}
	.st111{fill:#020202;}
	.st112{fill:#030303;}
	.st113{fill:#040403;}
	.st114{fill:#FCF4F0;}
	.st115{fill:#FBFBFD;}
	.st116{fill:#FCFBFD;}
	.st117{fill:#FBFAFD;}
	.st118{fill:#FCFCFD;}
	.st119{fill:#8F7FB1;}
	.st120{fill:#8D85A3;}
	.st121{fill:#413D1B;}
	.st122{fill:#0D0D05;}
	.st123{fill:#BC7D68;}
	.st124{fill:#D66F56;}
	.st125{fill:#C37761;}
	.st126{fill:#615D5C;}
	.st127{fill:#53504F;}
	.st128{display:inline;fill:#DAB12E;}
	.st129{fill:#303130;}
	.st130{fill:#2F2F2E;}
	.st131{fill:#212322;}
	.st132{fill:#F1D44A;}
	.st133{fill:#F4F6FB;}
	.st134{fill:#C01F41;}
	.st135{fill:#F4DD7E;}
	
		.st136{fill-rule:evenodd;clip-rule:evenodd;fill:#010101;stroke:#C01F41;stroke-width:8;stroke-linecap:square;stroke-miterlimit:4.598;}
	.st137{fill-rule:evenodd;clip-rule:evenodd;fill:#C01F41;}
	.st138{fill:#1D2858;}
	.st139{fill:none;stroke:#F1D44A;stroke-miterlimit:10;}
	.st140{fill-rule:evenodd;clip-rule:evenodd;fill:#F4F6FB;}
	.st141{fill-rule:evenodd;clip-rule:evenodd;fill:#F1D44A;}
	.st142{fill:#E87724;}
	.st143{display:inline;}
	.st144{display:inline;fill:#FFFFFF;}
	.st145{fill:none;stroke:#212322;stroke-width:2;stroke-miterlimit:10;}
	.st146{fill:none;stroke:#212322;stroke-width:3;stroke-miterlimit:10;}
	.st147{fill-rule:evenodd;clip-rule:evenodd;fill:url(#);}
	.st148{fill:url(#);}
	.st149{fill:none;stroke:#212322;stroke-miterlimit:10;}
	.st150{fill-rule:evenodd;clip-rule:evenodd;fill:#212322;}
</style>
<g id="Layer_2" class="st0">
</g>
<g id="Assets">
</g>
<g id="Crest">
</g>
<g id="Layer_9">
	<g>
		<path class="st133" d="M178.4,116.2c-7.3-20.9-14.6-41.8-22-62.6c-0.8-2.1-1.2-3.5,1-5.1c2.6-1.9,3.9-5.1,4.5-8.4
			c0.2-1,1.3-2.7-0.1-3.3c-1.2-0.5-2.8-0.4-4.1,0c-1.2,0.4-1,2.1-1.4,3.2c-1,2.2-2.2,4.4-4.6,4.4c-2.3,0-3.8-1.9-4.3-4.1
			c-0.7-3.5-2.7-3.9-5.5-3.8c-9.7,0.2-19.5,0-29.2,0.1c-3.3,0-4.5-2.4-5.2-4.9c-0.9-3.3,2.1-2.7,3.7-3.2c3.3-1.1,6.5-2.4,9.2-4.9
			c5.5-5.1,5.5-12.4,0-17.5c-8.6-8.1-25.8-8-34.2,0.1c-5.3,5.1-5.2,12.2,0.1,17.3c3.2,3,6.9,4.7,11,5.4c2.3,0.4,2.7,2,1.9,3.5
			c-1.1,2.1-2.1,4.4-5.3,4.3c-9-0.3-17.9,0-26.9-0.1c-2.3,0-3.8,0.1-4.4,3.1c-0.5,2.5-2,4.8-4.7,4.8c-2.7,0-3.8-2.4-4.8-4.7
			c-0.3-0.6-0.3-1.4-0.6-2c-1.1-2.1-3-1.2-4.5-1c-1.9,0.3-0.7,1.9-0.5,3c0.5,3.2,1.6,6.4,4.1,8.2c2.8,2.2,2.2,4.3,1.2,7
			c-7.4,21-14.6,42.1-22.3,62.9c-2.8,7.6-1.5,7,2.4,11.6c12.4,14.7,34.6,17.5,47,2.9c5.1-6,7.6-5.7,4.5-15
			c-7.2-21.4-13.8-43-20.6-64.5c-1.3-4.2,2.9-10.4,7-10.4c7.7,0,15.4,0,23,0c3.6,0,5.5,1.9,5.6,5.6c0.1,9.3-0.1,18.5,0.1,27.8
			c0,2.9-1.1,3.2-3.3,2.7c-4.2-1-7.8-3.3-11.4-5.7c-0.4,3.5-0.4,3.5,1.2,5.4c8.7,10.4,25.8,10.3,34.3-0.2c1.2-1.5,1.7-3,1-5.1
			c-3.2,2.1-6.2,4.4-9.8,5.4c-2.8,0.8-4.2,0.8-4.1-3.1c0.2-8.7,0.1-17.4,0.1-26.1c0-4.8,1.6-6.5,5.9-6.5c8.6,0,17.1,0,25.7,0
			c4.1,0,8.3,6.3,7,10.4c-6.9,21.9-13.7,43.9-20.9,65.7c-2.3,7-2.3,4.5,2.3,10.2c11.6,14.4,32.2,18.8,45.2,6
			C180.5,126.6,182.3,127.3,178.4,116.2z M52.9,122.9c-5.4-0.3-10.7-0.1-16.1-0.1c-1.7,0-2.7-0.3-2-2.5c7-20.8,14-41.6,21.1-62.4
			c0.1-0.2,0.3-0.3,0.8-0.8c0,20.8-0.1,41.3,0.1,61.7C56.8,122,56,123.1,52.9,122.9z M68.3,81.8c3.9,12.7,7.7,25.3,11.7,38
			c0.7,2.3,0.6,3.2-1.9,3.1c-5.2-0.1-10.5-0.1-15.7,0c-2.1,0.1-2.5-0.9-2.5-2.9c0.1-21,0-41.9,0-62.9c0.2-0.1,0.4-0.1,0.6-0.2
			C63.2,65.2,65.8,73.5,68.3,81.8z M89.8,18.8c-4-3.4-3.9-7.8,0.3-11c3.6-2.7,7.8-3.5,12.1-3.6c4.3,0.1,8.5,0.9,12.1,3.6
			c4.2,3.1,4.3,7.6,0.3,11C108.5,23.9,95.9,23.9,89.8,18.8z M146.1,122.9c-4.8-0.3-9.7-0.1-14.6,0c-1.9,0-2.8-0.3-2-2.8
			c6.4-20.6,12.8-41.2,19.1-61.8c0.1-0.4,0.4-0.6,1-1.5c0,21.2-0.1,41.7,0.1,62.2C149.7,122.1,149,123.1,146.1,122.9z M172.9,122.9
			c-5.9-0.1-11.8-0.1-17.7,0c-2.3,0.1-2.4-1.2-2.4-3c0-20.9,0-41.7,0-62.6c0.2-0.1,0.4-0.1,0.6-0.2c5.2,15.5,10.4,31,15.6,46.5
			c1.8,5.4,3.5,10.9,5.5,16.3C175.3,121.9,175.4,122.9,172.9,122.9z"/>
	</g>
</g>
<g id="United_For_All">
</g>
<g id="Layer_10">
</g>
<g id="Scale">
</g>
</svg>
